# xmcd CD database file
#
# Track frame offsets:
#	150
#	8743
#	26439
#	44911
#	58979
#	72837
#	91233
#	110848
#	120712
#	146927
#	160518
#	180361
#	201256
#
# Disc length: 2897 seconds
#
# Revision: 0
# Processed by: cddbd v1.5.2PL0 Copyright (c) Steve Scherf et al.
# Submitted via: CDex 1.60beta1-cs1
#
DISCID=b90b4f0d
DTITLE=Dalindeo - Soundtrack For The Sound Eye
DYEAR=2009
DGENRE=Jazz
TTITLE0=Lights,Camera,Action!
TTITLE1=Vintage Voyage
TTITLE2=Willpower (feat. Bajka)
TTITLE3=Take Cover!
TTITLE4=Another Devil
TTITLE5=New Creation (feat. Bajka)
TTITLE6=Belleville-Pantin
TTITLE7=Herrmann
TTITLE8=Words Unspoken
TTITLE9=Flow On
TTITLE10=Mr.J.L.
TTITLE11=Two Down, One To Go
TTITLE12=Kantava Voima （Second Movement）
EXTD=YEAR: 2009
EXTT0=
EXTT1=
EXTT2=
EXTT3=
EXTT4=
EXTT5=
EXTT6=
EXTT7=
EXTT8=
EXTT9=
EXTT10=
EXTT11=
EXTT12=
PLAYORDER=
